<svg xmlns="http://www.w3.org/2000/svg" width="800" height="400" viewBox="0 0 800 400">
  <defs>
    <style>
      .cls-1 {
        fill: #404040;
        fill-rule: evenodd;
      }
    </style>
  </defs>
  <path class="cls-1" d="M235.135,279.357H216.54v71.927h40.952V335.431H235.135V279.357ZM173.407,81.638c-26.1-25.239-60.085-27.976-80.416-27.976H24.107v60.2c7.974-4.749,16-6.219,20.489-8.026,6.138-2.47,44.613-25.3,74.149-20.467,17.9,2.93,22.653,10.346,31.4,37.425,6.344,19.631,5.878,33.749,4.438,40.261a54.934,54.934,0,0,0-16.991-2.733c-0.191,0-.383,0-0.575,0-11.96.042-21.748,6.355-30.269,12.234-8.489,6-16.062,11.463-21.887,11.744-1.029.076-2.028,0.11-3,.11a37.311,37.311,0,0,1-14.3-2.77,27.746,27.746,0,0,1-4.86-2.577,3.744,3.744,0,0,0-4.529,5.962c0.381,0.281,9.126,6.857,23.693,6.874q1.72,0,3.544-.129c9.4-.835,17.229-7.358,25.606-13.061,8.346-5.826,16.889-10.941,26-10.9l0.445,0a53.189,53.189,0,0,1,10.514,1.175c-1.921,3.775-6.343,24.562-24.147,38.451-16.993,13.256-53.648,7.747-53.648,7.747s0.248,21.447,2.326,39.178c0.083,0.706.131,1.414,0.151,2.13H97.542c34.594,0,61.6-14.6,77.684-30.714,19.726-19.766,26.4-43.484,26.4-70.244C201.628,133.637,197.076,104.444,173.407,81.638Zm40.352,174.851h52.5V53.662h-52.5V256.489ZM34.578,123.857a13.279,13.279,0,1,0,13.274,13.278A13.277,13.277,0,0,0,34.578,123.857ZM483.223,53.662h-52.5V177.729l-96.8-124.067h-52.5V211.555h52.5V132.42l96.8,124.069h52.5V53.662ZM686.836,79.205C666.2,59.439,637.069,49.1,607.027,49.1s-59.175,10.339-79.809,30.105c-21.546,20.375-31.862,48.959-31.862,76.022,0,26.76,10.316,55.04,31.862,75.719,20.634,19.764,49.766,30.1,79.809,30.1s59.174-10.339,79.809-30.1c21.546-20.679,31.862-48.959,31.862-75.719C718.7,128.164,708.382,99.58,686.836,79.205ZM647.69,194.15c-9.408,9.427-22.76,15.813-40.663,15.813-17.6,0-31.256-6.69-40.967-16.117a51.6,51.6,0,0,1-16.083-37.706c0-14.293,5.158-29.193,16.083-39.837,10.924-10.946,26.4-16.116,40.967-16.116A60.521,60.521,0,0,1,647.69,116.3a54.784,54.784,0,0,1,16.386,38.924A55.9,55.9,0,0,1,647.69,194.15ZM467.627,307.5l-5.7-1.727c-4.406-1.294-5.7-2.587-6.233-3.235a4.825,4.825,0,0,1-.968-3.235,5.329,5.329,0,0,1,1.828-3.882,8.911,8.911,0,0,1,6.126-2.157c2.473,0,6.664.432,12.253,4.853l7.417-14.558a50.226,50.226,0,0,0-22.142-5.823c-8.706,0-14.725,3.127-18.381,6.794-3.115,3.127-6.555,8.519-6.555,17.361,0,3.668.43,8.734,4.084,12.725,2.9,3.235,7.309,4.853,10.318,5.823l4.838,1.51c4.621,1.4,7.415,2.157,9.243,3.773a5.628,5.628,0,0,1,2.042,4.314,6.454,6.454,0,0,1-1.826,4.53c-1.183,1.293-3.44,2.48-7.2,2.48-6.448,0-12.467-3.56-16.444-7.333l-7.955,15.1a49.877,49.877,0,0,0,10.856,5.714,38.19,38.19,0,0,0,14.081,2.373c7.631,0,15.048-1.186,21.174-7.332,5.159-5.176,6.771-11.538,6.771-18.116,0-4.961-.967-8.951-4.621-12.833C476.87,310.521,472.14,308.9,467.627,307.5Zm-67.072,5.391a11.31,11.31,0,0,0,5.8-5.607,18.7,18.7,0,0,0,2.042-8.844c0-6.362-1.935-10.783-4.406-13.479-4.407-4.852-10.534-5.607-15.694-5.607h-27.73V293.7h22.035c3.654,0,5.911.971,7.094,2.157a7.417,7.417,0,0,1,1.719,4.853,6.985,6.985,0,0,1-1.719,4.744c-1.935,2.05-5.159,2.264-7.094,2.264H360.571v13.912h22.464c4.621,0,9.243.107,11.5,2.371a7.325,7.325,0,0,1,1.826,5.177,7.017,7.017,0,0,1-1.5,4.637c-2.044,2.373-6.342,2.912-11.5,2.912H360.571v14.558h29.881c8.813,0,15.585-2.805,19.454-6.794,2.688-2.7,5.267-7.334,5.267-14.128,0-5.714-1.935-10.351-4.837-13.156A17.8,17.8,0,0,0,400.555,312.894ZM296.4,279.357l-27.514,71.927h19.67l4.836-12.078H319.4l4.407,12.078h19.884l-26.978-71.927H296.4Zm2.151,45.613,7.847-23.291,8.06,23.291H298.551Z" transform="translate(30 -1)"/>
</svg>